Coordinates
version=1
nRows=13
nColumns=63
inDegrees=yes

Units are S.I. units (second, meters, Newtons, ...)
If the header above contains a line with 'inDegrees', this indicates whether rotational values are in degrees (yes) or radians (no).

endheader
time	pelvis_tilt	pelvis_list	pelvis_rotation	pelvis_tx	pelvis_ty	pelvis_tz	hip_flexion_r	hip_adduction_r	hip_rotation_r	knee_angle_r	knee_angle_r_beta	ankle_angle_r	subtalar_angle_r	mtp_angle_r	hip_flexion_l	hip_adduction_l	hip_rotation_l	knee_angle_l	knee_angle_l_beta	ankle_angle_l	subtalar_angle_l	mtp_angle_l	L5_S1_Flex_Ext	L5_S1_Lat_Bending	L5_S1_axial_rotation	L4_L5_Flex_Ext	L4_L5_Lat_Bending	L4_L5_axial_rotation	L3_L4_Flex_Ext	L3_L4_Lat_Bending	L3_L4_axial_rotation	L2_L3_Flex_Ext	L2_L3_Lat_Bending	L2_L3_axial_rotation	L1_L2_Flex_Ext	L1_L2_Lat_Bending	L1_L2_axial_rotation	L1_T12_Flex_Ext	L1_T12_Lat_Bending	L1_T12_axial_rotation	Abs_r3	Abs_r2	Abs_r1	Abs_t1	Abs_t2	neck_flexion	neck_bending	neck_rotation	arm_flex_r	arm_add_r	arm_rot_r	elbow_flex_r	pro_sup_r	wrist_flex_r	wrist_dev_r	arm_flex_l	arm_add_l	arm_rot_l	elbow_flex_l	pro_sup_l	wrist_flex_l	wrist_dev_l
4.450000	-6.417405	-8.528158	90.985775	0.179098	1.129294	0.435569	9.800878	-6.744909	-4.128339	10.660302	0.186057	20.703301	14.391925	0.000000	6.434598	5.314939	-11.468731	4.466108	0.077948	9.865016	7.510896	0.000000	0.248640	-0.733456	0.672478	0.461749	-0.975496	0.714508	0.408491	-1.783325	0.714508	0.284171	-1.783325	0.588418	0.230887	-1.495663	0.546389	0.142073	-1.136123	0.504359	1.776010	-8.297000	3.740122	0.000000	0.000000	23.672853	2.245981	-8.984702	-3.619161	-13.024289	-6.264416	94.754314	87.711772	-8.499919	14.196276	6.501643	-14.579251	96.011628	14.661749	36.142981	-16.100456	-15.006143
4.466667	-6.554577	-8.538679	90.778499	0.179495	1.129015	0.435993	9.945074	-6.846010	-3.834864	10.793759	0.188387	20.917316	14.292530	0.000000	6.470386	5.448320	-11.044072	4.498397	0.078512	9.663903	6.537723	0.000000	0.245274	-0.753478	0.698720	0.455499	-1.002125	0.742389	0.402961	-1.832006	0.742389	0.280324	-1.832006	0.611380	0.227762	-1.536492	0.567710	0.140150	-1.167137	0.524040	1.751969	-8.523491	3.886068	0.000000	0.000000	23.574559	2.529076	-8.751809	-3.209066	-13.470439	-5.867851	94.347033	88.151487	-8.575694	14.616598	5.756144	-15.288682	87.472986	16.548066	44.019291	-16.619580	-13.430605
4.483333	-6.667431	-8.545097	90.618444	0.179853	1.128732	0.436359	10.068226	-6.928904	-3.601806	10.906708	0.190358	21.156017	14.257657	0.000000	6.502598	5.561684	-10.559799	4.527042	0.079012	9.441734	5.490562	0.000000	0.240174	-0.771242	0.721947	0.446027	-1.025752	0.767068	0.394582	-1.875199	0.767068	0.274495	-1.875199	0.631703	0.223025	-1.572717	0.586582	0.137235	-1.194654	0.541460	1.715538	-8.724448	4.015251	0.000000	0.000000	23.549473	2.850665	-8.485384	-2.843300	-13.892959	-5.469482	93.725265	88.404707	-8.589683	15.264116	5.032141	-15.996815	78.782443	18.476049	51.950392	-16.972776	-11.827773
4.500000	-6.744876	-8.542404	90.522957	0.180155	1.128475	0.436620	10.150432	-6.986639	-3.482845	10.985606	0.191735	21.395932	14.315583	0.000000	6.515943	5.638574	-10.148846	4.541611	0.079266	9.215664	4.600556	0.000000	0.233353	-0.785968	0.743680	0.433359	-1.045338	0.790160	0.383375	-1.911004	0.790160	0.266699	-1.911004	0.650720	0.216691	-1.602747	0.604240	0.133338	-1.217465	0.557760	1.666815	-8.891032	4.136127	0.000000	0.000000	23.543135	3.162170	-8.275490	-2.540399	-14.257806	-5.136533	92.924460	88.542163	-8.539791	16.026077	4.389256	-16.679701	70.440499	20.335144	59.524583	-17.256384	-10.347440
4.516667	-6.780531	-8.535471	90.510127	0.180385	1.128242	0.436771	10.192427	-7.005816	-3.394062	11.029349	0.192498	21.611667	14.312390	0.000000	6.514890	5.680238	-9.650349	4.539316	0.079226	8.958848	3.677502	0.000000	0.225475	-0.796521	0.758444	0.418730	-1.059372	0.805847	0.370433	-1.936660	0.805847	0.257695	-1.936660	0.663639	0.209376	-1.624265	0.616236	0.128836	-1.233810	0.568833	1.610545	-9.010401	4.218239	0.000000	0.000000	23.539557	3.463241	-8.071427	-2.290421	-14.545291	-4.882623	91.979503	88.592367	-8.434991	16.834964	3.834509	-17.312324	62.745104	22.053463	66.414955	-17.477892	-9.076791
4.533333	-6.768040	-8.516299	90.610535	0.180506	1.128073	0.436823	10.170311	-6.989573	-3.447953	11.020255	0.192340	21.781588	14.361745	0.000000	6.492345	5.677047	-9.150750	4.519556	0.078881	8.698407	2.905389	0.000000	0.214927	-0.802495	0.757335	0.399141	-1.067318	0.804668	0.353104	-1.951186	0.804668	0.245640	-1.951186	0.662668	0.199581	-1.636448	0.615334	0.122809	-1.243065	0.568001	1.535203	-9.077984	4.212068	0.000000	0.000000	23.526169	3.743854	-7.907410	-2.076888	-14.754940	-4.702404	90.893992	88.477792	-8.183346	17.550426	3.388827	-17.877666	55.933881	23.568775	72.419410	-17.635286	-8.057207
4.550000	-6.720948	-8.504360	90.750183	0.180570	1.127924	0.436772	10.133366	-6.943630	-3.531543	10.995817	0.191913	21.918953	14.383793	0.000000	6.471117	5.639029	-8.701191	4.489105	0.078350	8.478226	2.274197	0.000000	0.205132	-0.804703	0.760222	0.380951	-1.070255	0.807736	0.337011	-1.956556	0.807736	0.234445	-1.956556	0.665194	0.190486	-1.640951	0.617680	0.117212	-1.246485	0.570167	1.465238	-9.102964	4.228127	0.000000	0.000000	23.489411	3.944492	-7.839718	-1.951616	-14.862184	-4.653935	89.766555	88.502059	-7.942640	18.118667	3.077881	-18.312105	50.667901	24.705891	77.121000	-17.792586	-7.370644
4.566667	-6.645672	-8.488451	90.911481	0.180599	1.127828	0.436625	10.070433	-6.871039	-3.634182	10.949459	0.191104	22.015258	14.389185	0.000000	6.436984	5.564150	-8.534044	4.439377	0.077482	8.342275	2.100769	0.000000	0.195096	-0.803526	0.762877	0.362314	-1.068689	0.810557	0.320524	-1.953693	0.810557	0.222976	-1.953693	0.667517	0.181167	-1.638550	0.619837	0.111478	-1.244661	0.572158	1.393554	-9.089644	4.242892	0.000000	0.000000	23.415603	4.080482	-7.835215	-1.890401	-14.883207	-4.672115	88.610873	88.520319	-7.705122	18.426006	2.897154	-18.617670	47.084531	25.445998	80.332845	-17.900212	-7.029528
4.583333	-6.541877	-8.465162	91.136507	0.180485	1.127803	0.436405	9.968915	-6.784216	-3.827697	10.879706	0.189887	22.063156	14.420485	0.000000	6.391232	5.459660	-8.583152	4.375195	0.076362	8.325485	2.371893	0.000000	0.184252	-0.798220	0.754117	0.342174	-1.061632	0.801249	0.302708	-1.940791	0.801249	0.210582	-1.940791	0.659852	0.171096	-1.627730	0.612720	0.105282	-1.236442	0.565588	1.316094	-9.029621	4.194171	0.000000	0.000000	23.303315	4.155557	-7.862706	-1.884353	-14.822154	-4.753556	87.470456	88.497819	-7.441612	18.462008	2.864185	-18.764109	45.361394	25.738112	81.839221	-17.945246	-7.093150
4.600000	-6.422214	-8.445164	91.369328	0.180280	1.127831	0.436130	9.861377	-6.691561	-4.078259	10.808013	0.188635	22.083970	14.503128	0.000000	6.349122	5.337067	-8.870594	4.302662	0.075096	8.433600	3.028117	0.000000	0.175381	-0.789940	0.741442	0.325700	-1.050620	0.787782	0.288134	-1.920659	0.787782	0.200443	-1.920659	0.648762	0.162859	-1.610845	0.602422	0.100213	-1.223616	0.556081	1.252730	-8.935955	4.123677	0.000000	0.000000	23.142758	4.163678	-7.935989	-1.933795	-14.693950	-4.860138	86.389031	88.488056	-7.272414	18.203259	2.988259	-18.733946	45.805314	25.516787	81.464800	-17.914664	-7.550269
4.616667	-6.283321	-8.417327	91.633226	0.179941	1.127929	0.435788	9.724545	-6.588838	-4.368942	10.720652	0.187111	22.063697	14.584711	0.000000	6.290273	5.201200	-9.274577	4.206227	0.073413	8.642531	3.949331	0.000000	0.166902	-0.777936	0.720969	0.309953	-1.034655	0.766030	0.274203	-1.891474	0.766030	0.190752	-1.891474	0.630848	0.154985	-1.586367	0.585788	0.095368	-1.205023	0.540727	1.192163	-8.800167	4.009815	0.000000	0.000000	22.958706	4.119675	-8.031519	-2.050324	-14.505099	-5.006493	85.421741	88.482479	-7.217807	17.694210	3.296230	-18.511024	48.701772	24.740684	78.956862	-17.760776	-8.410900
4.633333	-6.131474	-8.378215	91.882062	0.179487	1.128094	0.435406	9.573099	-6.471994	-4.566767	10.631095	0.185548	21.999016	14.549822	0.000000	6.218578	5.059314	-9.788698	4.102203	0.071597	8.919180	5.019732	0.000000	0.159285	-0.761578	0.694889	0.295808	-1.012899	0.738320	0.261689	-1.851702	0.738320	0.182047	-1.851702	0.608028	0.147912	-1.553011	0.564598	0.091015	-1.179685	0.521167	1.137756	-8.615127	3.864767	0.000000	0.000000	22.756388	4.044734	-8.078269	-2.213997	-14.299871	-5.148127	84.594066	88.490214	-7.265456	16.988227	3.787860	-18.064340	54.242119	23.350468	73.960853	-17.404079	-9.753903
4.650000	-6.040267	-8.344982	92.157625	0.179112	1.128200	0.434972	9.420560	-6.415573	-4.783428	10.551042	0.184150	21.947234	14.494044	0.000000	6.154385	4.979233	-10.257618	4.005278	0.069905	9.221315	6.087020	0.000000	0.153137	-0.754723	0.647196	0.284390	-1.003782	0.687645	0.251588	-1.835034	0.687645	0.175020	-1.835034	0.566296	0.142203	-1.539032	0.525846	0.087502	-1.169067	0.485397	1.093841	-8.537582	3.599508	0.000000	0.000000	22.627443	4.020345	-8.145994	-2.411442	-14.000683	-5.261877	83.929271	88.521367	-7.388299	16.154503	3.831106	-18.040501	55.067141	23.067336	73.302356	-17.488974	-10.291107
